<?xml version="1.0" encoding="UTF-8"?>
<svg id="Calque_1" data-name="Calque 1" xmlns="http://www.w3.org/2000/svg" viewBox="0 0 723.64 335.06">
  <g id="Full_Logo" data-name="Full Logo">
    <path d="m167.53,0C75.01,0,0,75.01,0,167.53s75.01,167.53,167.53,167.53,167.53-75.01,167.53-167.53S260.06,0,167.53,0Zm134.75,164.03c-4.32-13.49-6.98-20.35-12.79-34.08-.14,20.92-1.28,32.61-5.29,55.04,10.19,4.59,15.07,6.68,24.23,10.28,8.05,3.16,10.25,17.61,3.61,32.45-5.64,12.59-14.81,22.52-21.2,24.79-1.14.41-2.22.55-3.19.39-7.34-1.19-11.39-2.16-20.11-4.71-6.6,19.17-10.4,28.48-18.38,46-5.39,11.84-13.1,21.67-18.95,24.96-5.84,3.28-9.25-.96-9.36-11.5-1.54-56.95-16.38-113.01-29.2-168.09-7.36,56.54-15.61,112.88-23.55,169.34-1.71,12.82-6.92,21.5-13.05,22.15-6.12.65-12.53-6.7-16.58-18.71-20.05-56.64-35.78-112.9-49.7-171.31-9.36,47.4-12.59,105.76-1.89,153.53,2.35,10.28,1.54,15.66-2.52,14.29-.5-.17-1.04-.44-1.63-.79-4.14-2.5-10.45-9.22-16.78-17.83-25.97-35.32-39.7-54.65-57.34-90.56-6.7-13.64-5.27-30.46,2.35-39.02,7.62-8.56,16.93-4.83,21.82,10.41,4.32,13.49,6.98,20.35,12.79,34.08.14-20.91,1.27-32.61,5.29-55.03-10.19-4.59-15.07-6.68-24.23-10.28-8.05-3.16-10.25-17.61-3.61-32.45s17.94-26.23,24.4-25.18c7.34,1.19,11.39,2.16,20.11,4.71,6.59-19.18,10.4-28.48,18.37-46,5.39-11.84,13.12-21.66,18.95-24.96,5.87-3.32,9.25.96,9.36,11.51,1.54,56.95,16.38,113.01,29.2,168.09,7.36-56.54,15.61-112.88,23.55-169.34,1.71-12.82,6.95-21.46,13.05-22.15,6.08-.69,12.53,6.7,16.58,18.71,20.05,56.64,35.78,112.91,49.7,171.31,9.37-47.4,12.59-105.76,1.9-153.53-2.35-10.28-1.54-15.65,2.52-14.29,4.03,1.35,11.18,8.8,18.4,18.62,25.97,35.32,39.7,54.65,57.34,90.56,6.69,13.64,5.26,30.47-2.35,39.03-7.61,8.56-16.93,4.83-21.82-10.41v-.03Z" style="fill: #B0D7FF; stroke-width: 0px;"/>
  </g>
  <g id="Jeriel">
    <path d="m418.26,65.26c0,3.42-.42,6.51-1.26,9.26s-2.1,5.09-3.77,7.03c-1.67,1.94-3.75,3.42-6.25,4.46s-5.4,1.56-8.71,1.56c-1.52,0-3-.09-4.46-.27s-2.99-.47-4.59-.86c.08-1.12.18-2.24.29-3.37.11-1.12.21-2.24.29-3.37.08-.62.33-1.12.74-1.49.41-.38.99-.57,1.75-.57.48,0,1.1.1,1.87.29.77.2,1.75.29,2.92.29,1.6,0,3.02-.23,4.25-.69,1.24-.46,2.27-1.2,3.09-2.21.83-1.01,1.45-2.32,1.87-3.94.42-1.61.63-3.57.63-5.87V26.03h11.32v39.23h.02Z" style="fill: #B0D7FF;  stroke-width: 0px;"/>
    <path d="m436.19,66.6c.17,2.22.56,4.13,1.18,5.75.62,1.61,1.43,2.95,2.44,4s2.21,1.84,3.6,2.36c1.39.52,2.92.78,4.61.78s3.14-.2,4.36-.59c1.22-.39,2.29-.83,3.2-1.3.91-.48,1.71-.91,2.4-1.31.69-.39,1.35-.59,2-.59.87,0,1.51.32,1.94.97l2.99,3.79c-1.15,1.35-2.44,2.48-3.87,3.39-1.43.91-2.93,1.64-4.48,2.19-1.56.55-3.14.93-4.76,1.16-1.61.22-3.18.34-4.69.34-3,0-5.79-.5-8.38-1.49-2.58-1-4.83-2.47-6.74-4.42s-3.41-4.36-4.5-7.24-1.64-6.21-1.64-10c0-2.95.48-5.72,1.43-8.31.95-2.6,2.32-4.85,4.1-6.78,1.78-1.92,3.96-3.44,6.52-4.57,2.57-1.12,5.46-1.68,8.69-1.68,2.72,0,5.23.44,7.53,1.3,2.3.87,4.28,2.14,5.94,3.81,1.66,1.67,2.95,3.72,3.89,6.15s1.41,5.2,1.41,8.31c0,1.57-.17,2.63-.51,3.18s-.98.82-1.94.82h-26.73v-.02Zm19.83-6.27c0-1.35-.19-2.62-.57-3.81-.38-1.19-.95-2.24-1.71-3.14-.76-.9-1.72-1.61-2.88-2.13-1.17-.52-2.52-.78-4.06-.78-3,0-5.37.86-7.09,2.57-1.73,1.71-2.83,4.14-3.3,7.28h19.62-.01Z" style="fill: #B0D7FF; stroke-width: 0px;"/>
    <path d="m482.95,51.2c1.35-2.58,2.95-4.61,4.8-6.08,1.85-1.47,4.04-2.21,6.57-2.21,1.99,0,3.59.44,4.8,1.3l-.67,7.79c-.14.51-.34.86-.61,1.07s-.62.32-1.07.32c-.42,0-1.05-.07-1.87-.21-.83-.14-1.64-.21-2.42-.21-1.15,0-2.17.17-3.07.5-.9.34-1.71.82-2.42,1.45-.71.63-1.35,1.4-1.89,2.29-.55.9-1.06,1.92-1.54,3.07v26.6h-10.4v-43.19h6.1c1.07,0,1.81.19,2.23.57s.7,1.06.84,2.04l.63,4.88v.02Z" style="fill: #B0D7FF;  stroke-width: 0px;"/>
    <path d="m516.75,31.12c0,.9-.18,1.74-.55,2.53s-.85,1.47-1.45,2.06c-.6.59-1.31,1.06-2.13,1.41-.81.35-1.68.53-2.61.53s-1.75-.18-2.55-.53-1.49-.82-2.08-1.41-1.06-1.28-1.41-2.06c-.35-.79-.53-1.63-.53-2.53s.17-1.8.53-2.61c.35-.81.82-1.52,1.41-2.1.59-.59,1.28-1.06,2.08-1.41s1.65-.53,2.55-.53,1.79.18,2.61.53c.81.35,1.52.82,2.13,1.41.6.59,1.09,1.29,1.45,2.1s.55,1.68.55,2.61Zm-1.43,12.59v43.19h-10.44v-43.19s10.44,0,10.44,0Z" style="fill: #B0D7FF;  stroke-width: 0px;"/>
    <path d="m533.93,66.6c.17,2.22.56,4.13,1.18,5.75.62,1.61,1.43,2.95,2.44,4s2.21,1.84,3.6,2.36c1.39.52,2.92.78,4.61.78s3.14-.2,4.36-.59,2.29-.83,3.2-1.3c.91-.48,1.71-.91,2.4-1.31.69-.39,1.35-.59,2-.59.87,0,1.51.32,1.94.97l2.99,3.79c-1.15,1.35-2.44,2.48-3.87,3.39-1.43.91-2.93,1.64-4.48,2.19-1.56.55-3.14.93-4.76,1.16-1.61.22-3.18.34-4.69.34-3,0-5.79-.5-8.38-1.49-2.58-1-4.83-2.47-6.74-4.42s-3.41-4.36-4.5-7.24-1.64-6.21-1.64-10c0-2.95.48-5.72,1.43-8.31.95-2.6,2.32-4.85,4.1-6.78,1.78-1.92,3.96-3.44,6.52-4.57,2.57-1.12,5.46-1.68,8.69-1.68,2.72,0,5.23.44,7.53,1.3,2.3.87,4.28,2.14,5.94,3.81,1.66,1.67,2.95,3.72,3.89,6.15s1.41,5.2,1.41,8.31c0,1.57-.17,2.63-.51,3.18s-.98.82-1.94.82h-26.73v-.02Zm19.83-6.27c0-1.35-.19-2.62-.57-3.81-.38-1.19-.95-2.24-1.71-3.14-.76-.9-1.72-1.61-2.88-2.13-1.17-.52-2.52-.78-4.06-.78-3,0-5.37.86-7.09,2.57-1.73,1.71-2.83,4.14-3.3,7.28h19.62,0Z" style="fill: #B0D7FF; stroke-width: 0px;"/>
    <path d="m581.41,24.34v62.55h-10.4V24.34h10.4Z" style="fill: #B0D7FF; stroke-width: 0px;"/>
  </g>
  <g id="Martinez">
    <path d="m461.07,130.93v60.87h-9.98v-39.31c0-1.57.08-3.27.25-5.09l-18.39,34.56c-.87,1.66-2.2,2.48-4,2.48h-1.6c-1.8,0-3.13-.83-4-2.48l-18.6-34.68c.08.93.15,1.84.21,2.74.06.9.08,1.73.08,2.48v39.31h-9.98v-60.87h8.54c.5,0,.94,0,1.3.04s.69.1.99.21c.29.11.56.29.8.55s.47.59.69,1.01l18.23,33.8c.48.9.92,1.82,1.33,2.78.41.95.81,1.94,1.2,2.95.39-1.04.8-2.04,1.22-3.01s.87-1.9,1.35-2.8l17.97-33.72c.22-.42.46-.76.71-1.01s.53-.43.82-.55c.29-.11.62-.18.99-.21.36-.03.8-.04,1.3-.04h8.57Z" style="fill: #B0D7FF;  stroke-width: 0px;"/>
    <path d="m470.88,154.63c4.97-4.55,10.94-6.82,17.93-6.82,2.53,0,4.78.41,6.78,1.24,1.99.83,3.68,1.98,5.05,3.45s2.42,3.23,3.14,5.28,1.07,4.29,1.07,6.73v27.28h-4.71c-.98,0-1.74-.15-2.27-.44-.53-.29-.95-.89-1.26-1.79l-.93-3.12c-1.09.98-2.16,1.85-3.2,2.59-1.04.74-2.12,1.37-3.24,1.87s-2.32.89-3.6,1.16-2.69.4-4.23.4c-1.82,0-3.51-.25-5.05-.74-1.54-.49-2.88-1.23-4-2.21s-1.99-2.2-2.61-3.66-.93-3.16-.93-5.09c0-1.09.18-2.18.55-3.26.36-1.08.96-2.11,1.79-3.09.83-.98,1.9-1.91,3.22-2.78s2.94-1.63,4.86-2.27c1.92-.65,4.16-1.17,6.71-1.58s5.47-.65,8.76-.74v-2.53c0-2.89-.62-5.03-1.85-6.42-1.24-1.39-3.02-2.08-5.35-2.08-1.68,0-3.08.2-4.19.59-1.11.39-2.08.84-2.93,1.33-.84.49-1.61.93-2.29,1.33-.69.39-1.45.59-2.29.59-.73,0-1.35-.19-1.85-.57s-.91-.82-1.22-1.33l-1.85-3.33h0Zm23.82,18.73c-3,.14-5.53.4-7.58.78s-3.69.86-4.92,1.45-2.12,1.28-2.65,2.06c-.53.79-.8,1.64-.8,2.57,0,1.82.54,3.13,1.62,3.92s2.49,1.18,4.23,1.18c2.13,0,3.98-.38,5.54-1.16,1.56-.77,3.08-1.94,4.57-3.51v-7.28h-.01Z" style="fill: #B0D7FF; stroke-width: 0px;"/>
    <path d="m524.42,156.1c1.35-2.58,2.95-4.61,4.8-6.08s4.04-2.21,6.57-2.21c1.99,0,3.59.44,4.8,1.3l-.67,7.79c-.14.51-.34.86-.61,1.07-.27.21-.62.32-1.07.32-.42,0-1.05-.07-1.87-.21-.83-.14-1.64-.21-2.42-.21-1.15,0-2.17.17-3.07.5-.9.34-1.71.82-2.42,1.45-.71.63-1.35,1.4-1.89,2.29-.55.9-1.06,1.92-1.54,3.07v26.6h-10.4v-43.19h6.1c1.07,0,1.81.19,2.23.57s.7,1.06.84,2.04l.63,4.88v.02Z" style="fill: #B0D7FF; stroke-width: 0px;"/>
    <path d="m589.57,191.8h-10.4v-35.4h-20.04v23.4c0,1.35.33,2.4.99,3.16s1.56,1.14,2.71,1.14c.65,0,1.19-.08,1.62-.23s.81-.32,1.14-.48c.32-.17.61-.33.86-.48s.5-.23.76-.23c.31,0,.56.08.76.23s.41.39.63.69l3.12,5.05c-1.52,1.26-3.26,2.22-5.22,2.86-1.96.64-4,.97-6.1.97-3.76,0-6.64-1.06-8.65-3.18s-3.01-5.04-3.01-8.78v-24.12h-4.42c-.56,0-1.04-.18-1.43-.55-.39-.36-.59-.91-.59-1.64v-4.12l6.95-1.18,2.19-11.74c.14-.56.41-1,.8-1.3.39-.31.9-.46,1.52-.46h5.39v13.6h30.43v42.81-.02Zm1.81-55.94c0,.9-.18,1.75-.55,2.55-.36.8-.85,1.49-1.45,2.08-.6.59-1.32,1.06-2.15,1.41s-1.7.53-2.63.53-1.74-.17-2.53-.53c-.79-.35-1.47-.82-2.06-1.41s-1.06-1.28-1.41-2.08-.53-1.65-.53-2.55.18-1.79.53-2.59c.35-.8.82-1.5,1.41-2.1.59-.6,1.28-1.08,2.06-1.43.79-.35,1.63-.53,2.53-.53s1.8.18,2.63.53,1.54.83,2.15,1.43c.6.6,1.09,1.31,1.45,2.1.37.8.55,1.66.55,2.59Z" style="fill: #B0D7FF;  stroke-width: 0px;"/>
    <path d="m609.91,153.91c.87-.87,1.79-1.68,2.76-2.42.97-.74,1.99-1.37,3.07-1.89s2.24-.93,3.47-1.22c1.23-.29,2.58-.44,4.04-.44,2.36,0,4.45.4,6.27,1.2s3.35,1.92,4.57,3.37c1.22,1.45,2.15,3.17,2.78,5.18s.95,4.22.95,6.63v27.49h-10.4v-27.49c0-2.64-.6-4.68-1.81-6.12-1.21-1.45-3.04-2.17-5.51-2.17-1.8,0-3.48.41-5.05,1.22s-3.06,1.92-4.46,3.33v31.23h-10.4v-43.19h6.36c1.35,0,2.23.63,2.65,1.89l.72,3.41h0Z" style="fill: #B0D7FF;  stroke-width: 0px;"/>
    <path d="m655.66,171.51c.17,2.22.56,4.13,1.18,5.75.62,1.61,1.43,2.95,2.44,4s2.21,1.84,3.6,2.36,2.93.78,4.61.78,3.14-.2,4.36-.59,2.29-.83,3.2-1.3c.91-.48,1.71-.91,2.4-1.31.69-.39,1.35-.59,2-.59.87,0,1.51.32,1.94.97l2.99,3.79c-1.15,1.35-2.44,2.48-3.87,3.39s-2.92,1.64-4.48,2.19-3.14.93-4.76,1.16-3.18.34-4.69.34c-3,0-5.79-.5-8.38-1.49-2.58-1-4.83-2.47-6.73-4.42-1.91-1.95-3.41-4.36-4.5-7.24s-1.64-6.21-1.64-10c0-2.95.48-5.72,1.43-8.31.95-2.6,2.32-4.85,4.1-6.78,1.78-1.92,3.96-3.44,6.52-4.57,2.57-1.12,5.46-1.68,8.69-1.68,2.72,0,5.23.44,7.54,1.3,2.3.87,4.28,2.14,5.93,3.81,1.66,1.67,2.95,3.72,3.89,6.15s1.41,5.2,1.41,8.31c0,1.57-.17,2.63-.5,3.18-.34.55-.98.82-1.94.82h-26.73v-.02Zm19.83-6.27c0-1.35-.19-2.62-.57-3.81s-.95-2.24-1.7-3.14c-.76-.9-1.72-1.61-2.88-2.13-1.17-.52-2.52-.78-4.06-.78-3,0-5.37.86-7.09,2.57-1.73,1.71-2.83,4.14-3.3,7.28h19.62-.02Z" style="fill: #B0D7FF;  stroke-width: 0px;"/>
    <path d="m723.64,152.9c0,.73-.13,1.45-.38,2.15s-.59,1.28-1.01,1.73l-20.5,27.02h21.26v8h-33.34v-4.33c0-.48.11-1.04.34-1.71.22-.66.56-1.28,1.01-1.87l20.71-27.32h-20.84v-7.96h32.75v4.29h0Z" style="fill: #B0D7FF;  stroke-width: 0px;"/>
  </g>
  <g id="Flores.">
    <path d="m406.43,244.85v18.02h22.81v9.05h-22.81v24.79h-11.37v-60.87h38.39v9.01h-27.02Z" style="fill: #B0D7FF;  stroke-width: 0px;"/>
    <path d="m450.92,234.16v62.55h-10.4v-62.55h10.4Z" style="fill: #B0D7FF; stroke-width: 0px;"/>
    <path d="m480.43,252.84c3.2,0,6.11.52,8.73,1.56,2.62,1.04,4.87,2.51,6.74,4.42s3.3,4.24,4.31,6.99,1.51,5.82,1.51,9.22-.5,6.51-1.51,9.26-2.45,5.09-4.31,7.03c-1.87,1.94-4.11,3.42-6.74,4.46-2.62,1.04-5.54,1.56-8.73,1.56s-6.16-.52-8.8-1.56c-2.64-1.04-4.89-2.53-6.76-4.46s-3.31-4.28-4.33-7.03-1.54-5.84-1.54-9.26.51-6.47,1.54-9.22c1.02-2.75,2.47-5.08,4.33-6.99,1.87-1.91,4.12-3.38,6.76-4.42s5.57-1.56,8.8-1.56h0Zm0,36.49c3.59,0,6.25-1.21,7.98-3.62s2.59-5.95,2.59-10.61-.86-8.21-2.59-10.65-4.38-3.66-7.98-3.66-6.35,1.23-8.1,3.68c-1.75,2.46-2.63,6-2.63,10.63s.88,8.16,2.63,10.59,4.46,3.64,8.1,3.64h0Z" style="fill: #B0D7FF;  stroke-width: 0px;"/>
    <path d="m519.49,261.01c1.35-2.58,2.95-4.61,4.8-6.08,1.85-1.47,4.04-2.21,6.57-2.21,1.99,0,3.59.44,4.8,1.3l-.67,7.79c-.14.51-.34.86-.61,1.07-.27.21-.62.32-1.07.32-.42,0-1.05-.07-1.87-.21-.83-.14-1.64-.21-2.42-.21-1.15,0-2.17.17-3.07.5-.9.34-1.71.82-2.42,1.45-.71.63-1.35,1.4-1.89,2.29-.55.9-1.06,1.92-1.54,3.07v26.6h-10.4v-43.19h6.1c1.07,0,1.81.19,2.23.57s.7,1.06.84,2.04l.63,4.88v.02Z" style="fill: #B0D7FF;  stroke-width: 0px;"/>
    <path d="m547.86,276.42c.17,2.22.56,4.13,1.18,5.75.62,1.61,1.43,2.95,2.44,4s2.21,1.84,3.6,2.36c1.39.52,2.93.78,4.61.78s3.14-.2,4.36-.59c1.22-.39,2.29-.83,3.2-1.31.91-.48,1.71-.91,2.4-1.3.69-.39,1.35-.59,2-.59.87,0,1.51.32,1.94.97l2.99,3.79c-1.15,1.35-2.44,2.48-3.87,3.39s-2.92,1.64-4.48,2.19-3.14.93-4.76,1.16c-1.61.22-3.18.34-4.69.34-3,0-5.79-.5-8.38-1.5-2.58-1-4.83-2.47-6.73-4.42s-3.41-4.36-4.5-7.24-1.64-6.21-1.64-10c0-2.95.48-5.72,1.43-8.31s2.32-4.85,4.1-6.78c1.78-1.92,3.96-3.44,6.52-4.57s5.46-1.68,8.69-1.68c2.72,0,5.23.43,7.54,1.3,2.3.87,4.28,2.14,5.94,3.81,1.65,1.67,2.95,3.72,3.89,6.14.94,2.43,1.41,5.2,1.41,8.31,0,1.57-.17,2.63-.5,3.18-.34.55-.98.82-1.94.82h-26.75Zm19.83-6.27c0-1.35-.19-2.62-.57-3.81s-.95-2.24-1.71-3.14-1.72-1.61-2.88-2.13c-1.16-.52-2.52-.78-4.06-.78-3,0-5.37.86-7.09,2.57-1.73,1.71-2.83,4.14-3.3,7.28h19.62,0Z" style="fill: #B0D7FF;  stroke-width: 0px;"/>
    <path d="m611.17,261.94c-.28.45-.58.76-.88.95s-.7.27-1.18.27c-.51,0-1.05-.14-1.62-.42s-1.24-.6-2-.95-1.62-.67-2.59-.95c-.97-.28-2.11-.42-3.43-.42-2.05,0-3.66.44-4.82,1.3-1.17.87-1.75,2.01-1.75,3.41,0,.93.3,1.71.91,2.34.6.63,1.4,1.19,2.4,1.66,1,.48,2.12.91,3.39,1.28s2.55.79,3.85,1.24c1.3.45,2.59.96,3.85,1.54s2.39,1.3,3.39,2.19,1.79,1.94,2.4,3.18c.6,1.24.9,2.72.9,4.46,0,2.08-.37,3.99-1.12,5.75-.74,1.75-1.85,3.27-3.3,4.55-1.46,1.28-3.26,2.27-5.41,2.99-2.15.71-4.62,1.07-7.43,1.07-1.49,0-2.94-.13-4.36-.4s-2.78-.64-4.08-1.12c-1.3-.48-2.51-1.04-3.62-1.68-1.11-.65-2.08-1.35-2.93-2.1l2.4-3.96c.31-.48.67-.84,1.09-1.09.42-.25.95-.38,1.6-.38s1.26.18,1.83.55c.58.37,1.24.76,2,1.18s1.65.81,2.67,1.18c1.02.36,2.32.55,3.89.55,1.23,0,2.29-.15,3.18-.44.88-.29,1.61-.68,2.19-1.16s1-1.03,1.26-1.66c.27-.63.4-1.28.4-1.96,0-1.01-.3-1.84-.91-2.48-.6-.64-1.4-1.21-2.4-1.68-1-.48-2.13-.9-3.41-1.28-1.28-.38-2.58-.79-3.92-1.24-1.33-.45-2.64-.97-3.91-1.58-1.28-.6-2.41-1.37-3.41-2.29-1-.93-1.8-2.06-2.4-3.41-.6-1.35-.91-2.97-.91-4.88,0-1.77.35-3.45,1.05-5.05.7-1.6,1.73-3,3.09-4.19,1.36-1.19,3.06-2.15,5.09-2.86,2.03-.72,4.38-1.07,7.05-1.07,2.97,0,5.68.49,8.12,1.47s4.48,2.27,6.1,3.87l-2.36,3.75.05-.03Z" style="fill: #B0D7FF;  stroke-width: 0px;"/>
    <path d="m620.3,290.98c0-.87.16-1.7.48-2.48.32-.79.76-1.46,1.33-2.02.56-.56,1.23-1.01,2.02-1.35.79-.34,1.63-.5,2.53-.5s1.73.17,2.5.5c.77.34,1.44.79,2.02,1.35.57.56,1.03,1.24,1.37,2.02.34.79.5,1.61.5,2.48s-.17,1.73-.5,2.5c-.34.77-.79,1.44-1.37,2s-1.25,1-2.02,1.33c-.77.32-1.61.48-2.5.48s-1.74-.16-2.53-.48c-.79-.32-1.46-.76-2.02-1.33-.56-.56-1-1.23-1.33-2s-.48-1.61-.48-2.5Z" style="fill: #B0D7FF;  stroke-width: 0px;"/>
  </g>
</svg>